<svg width="414" height="854" viewBox="0 0 414 854" fill="none" xmlns="http://www.w3.org/2000/svg">
<path fill-rule="evenodd" clip-rule="evenodd" d="M182.009 15.7505C242.046 22.7034 302.455 40.6465 349.786 83.2292C394.427 123.392 412.105 188.026 437.741 245.828C462.005 300.538 510.81 354.728 496.382 413.767C481.146 476.114 386.081 474.292 367.012 535.259C340.836 618.949 421.545 724.399 376.523 796.981C337.982 859.116 241.068 869.147 182.009 833.511C117.195 794.403 116.638 688.717 78.7077 617.281C60.4781 582.949 40.8415 551.584 16.7586 522.287C-16.1587 482.243 -106.885 464.484 -88.5873 413.767C-65.5909 350.026 65.3487 413.655 80.0634 346.82C103.272 241.403 -38.3074 144.505 -6.72533 41.9416C14.588 -27.2736 117.864 8.3219 182.009 15.7505Z" fill="url(#paint0_linear)"/>
<defs>
<linearGradient id="paint0_linear" x1="390.59" y1="947.325" x2="147.569" y2="147.59" gradientUnits="userSpaceOnUse">
<stop stop-color="#DADDE1"/>
<stop offset="0.269313" stop-color="#DADDE1" stop-opacity="0.536458"/>
<stop offset="1" stop-color="#DADDE1" stop-opacity="0"/>
</linearGradient>
</defs>
</svg>
