<svg width="414" height="738" viewBox="0 0 414 738" fill="none" xmlns="http://www.w3.org/2000/svg">
<path fill-rule="evenodd" clip-rule="evenodd" d="M-99.5823 371.904C-89.7708 308.236 -25.2629 272.5 12.558 220.351C46.4818 173.575 63.0543 115.568 110.374 82.4077C166.184 43.2973 233.488 2.49293 299.55 19.233C365.544 35.9561 399.403 107.141 435.579 164.815C466.937 214.81 486.326 269.06 493.03 327.694C499.991 388.578 497.194 449.124 474.6 506.087C448.175 572.708 416.228 641.974 354.159 677.809C288.05 715.976 205.843 724.062 132.263 703.732C59.8656 683.729 1.91105 630.166 -41.1078 568.596C-81.266 511.12 -110.261 441.202 -99.5823 371.904Z" fill="url(#paint0_linear)"/>
<defs>
<linearGradient id="paint0_linear" x1="453" y1="768" x2="49.5" y2="416.5" gradientUnits="userSpaceOnUse">
<stop stop-color="#DADDE1" stop-opacity="0.53"/>
<stop offset="1" stop-color="#DADDE1" stop-opacity="0"/>
</linearGradient>
</defs>
</svg>
