<svg width="414" height="825" viewBox="0 0 414 825" fill="none" xmlns="http://www.w3.org/2000/svg">
<path fill-rule="evenodd" clip-rule="evenodd" d="M134.956 792.986C47.2087 815.456 -6.48787 690.688 -60.9371 622.098C-104.274 567.506 -139.534 507.315 -145.155 440.129C-150.228 379.492 -117.273 325.467 -90.362 270.386C-64.3466 217.137 -48.4074 151.602 8.3183 125.997C64.2583 100.747 128.899 151.947 190.674 143.533C286.408 130.495 393.902 -1.92743 460.11 64.4648C530.195 134.744 373.456 235.767 377.384 330.762C380.045 395.102 506.555 437.423 477.947 495.721C448.946 554.816 327.966 491.308 276.866 535.596C199.101 602.994 237.95 766.612 134.956 792.986Z" fill="url(#paint0_linear)" fill-opacity="0.35"/>
<defs>
<linearGradient id="paint0_linear" x1="373.385" y1="597.494" x2="51.3227" y2="311.25" gradientUnits="userSpaceOnUse">
<stop stop-color="#DADDE1" stop-opacity="0.9"/>
<stop offset="1" stop-color="#DADDE1" stop-opacity="0"/>
</linearGradient>
</defs>
</svg>
