<svg width="414" height="879" viewBox="0 0 414 879" fill="none" xmlns="http://www.w3.org/2000/svg">
<path fill-rule="evenodd" clip-rule="evenodd" d="M-65.7336 566.222C-131.899 561.623 -233.937 599.998 -260.248 539.248C-286.01 479.764 -183.115 436.999 -144.48 384.4C-124.141 356.71 -104.676 329.957 -85.5562 301.416C-67.747 274.831 -57.4465 244.097 -35.1249 221.161C-10.3057 195.66 23.2106 182.698 51.2709 160.826C102.027 121.262 135.248 27.7222 198.18 39.3054C257.045 50.1399 263.264 141.605 270.214 201.124C275.871 249.565 213.439 296.922 233.444 341.282C255.036 389.16 339.18 374.959 368.299 418.619C396.739 461.261 423.156 534.1 385.918 569.896C342.096 612.02 260.762 546.419 206.66 573.997C162.952 596.276 181.169 703.127 132.48 699.08C75.7863 694.367 85.2338 591.57 38.114 559.987C9.0604 540.513 -30.7366 568.654 -65.7336 566.222Z" fill="url(#paint0_linear)"/>
<defs>
<linearGradient id="paint0_linear" x1="328" y1="585" x2="-62.4833" y2="287.821" gradientUnits="userSpaceOnUse">
<stop stop-color="#DADDE1" stop-opacity="0.7"/>
<stop offset="1" stop-color="#C4C4C4" stop-opacity="0"/>
</linearGradient>
</defs>
</svg>
