<svg width="414" height="717" viewBox="0 0 414 717" fill="none" xmlns="http://www.w3.org/2000/svg">
<path fill-rule="evenodd" clip-rule="evenodd" d="M227.447 7.73245C288.74 8.98805 352.94 -3.32217 406.382 34.0515C461.097 72.3164 503.425 138.62 521.538 213.403C538.709 284.297 510.666 356.41 502.211 429.703C493.755 503.016 510.522 587.788 471.857 644.094C433.172 700.431 365.558 707.068 306.346 714.935C254.665 721.801 203.195 711.383 155.34 686.145C111.237 662.887 83.5815 612.666 45.1054 577.163C-6.85152 529.222 -92.9461 518.504 -110.355 440.982C-127.252 365.743 -58.6867 303.806 -32.1866 232.986C-5.93806 162.838 -6.32304 70.8961 44.6853 26.6421C95.8689 -17.7639 165.061 6.45447 227.447 7.73245Z" fill="url(#paint0_linear)"/>
<defs>
<linearGradient id="paint0_linear" x1="554" y1="779" x2="3.99994" y2="32.5" gradientUnits="userSpaceOnUse">
<stop stop-color="#DADDE1"/>
<stop offset="1" stop-color="#DADDE1" stop-opacity="0"/>
</linearGradient>
</defs>
</svg>
